<svg width="240" height="240" viewBox="0 0 240 240" fill="none" xmlns="http://www.w3.org/2000/svg">
<rect width="240" height="240" rx="120" fill="#2563EB"/>
<path d="M61 177V63H80.671V177H61Z" fill="#EFF6FF"/>
<path d="M90.5506 177V63H133.572C146.026 63 156.781 65.2988 165.838 69.8963C174.895 74.4 181.83 80.921 186.641 89.4593C191.547 97.9975 194 108.178 194 120C194 131.728 191.547 141.862 186.641 150.4C181.735 158.938 174.754 165.506 165.696 170.104C156.639 174.701 145.931 177 133.572 177H90.5506ZM110.222 160.393H133.572C146.592 160.393 156.592 156.78 163.574 149.556C170.65 142.331 174.188 132.479 174.188 120C174.188 107.427 170.697 97.5753 163.715 90.4444C156.734 83.2198 146.686 79.6074 133.572 79.6074H110.222V160.393Z" fill="#EFF6FF"/>
</svg>
