<svg width="342" height="124" viewBox="0 0 342 124" fill="none" xmlns="http://www.w3.org/2000/svg">
<path d="M0 95.58V0H44.014C54.634 0 62.8547 2.67467 68.676 8.024C74.576 13.2947 77.526 20.5713 77.526 29.854C77.526 39.058 74.576 46.3347 68.676 51.684C62.8547 57.0333 54.634 59.708 44.014 59.708H16.402V95.58H0ZM16.402 45.666H43.07C48.97 45.666 53.454 44.25 56.522 41.418C59.59 38.586 61.124 34.7313 61.124 29.854C61.124 24.898 59.59 21.0433 56.522 18.29C53.454 15.458 48.97 14.042 43.07 14.042H16.402V45.666Z" fill="#1E293B"/>
<path d="M102.114 96.878C94.0116 96.878 87.6003 94.872 82.8802 90.86C78.2389 86.848 75.9183 81.5773 75.9183 75.048C75.9183 68.204 78.2783 62.894 82.9983 59.118C87.7183 55.342 94.4836 53.454 103.294 53.454H125.714V50.504C125.714 41.064 120.365 36.344 109.666 36.344C100.62 36.344 95.1916 39.6087 93.3823 46.138H77.3343C78.6716 38.822 82.1329 33.1973 87.7183 29.264C93.3823 25.3307 100.738 23.364 109.784 23.364C119.932 23.364 127.681 25.724 133.03 30.444C138.38 35.0853 141.054 41.8507 141.054 50.74V79.414H148.724V95.58H132.086V84.37H127.13C124.692 88.3033 121.388 91.3713 117.218 93.574C113.049 95.7767 108.014 96.878 102.114 96.878ZM104.474 84.37C108.486 84.37 112.105 83.5833 115.33 82.01C118.556 80.4367 121.073 78.352 122.882 75.756C124.77 73.0813 125.714 70.1313 125.714 66.906V64.664H104.12C95.4669 64.664 91.1403 67.8893 91.1403 74.34C91.1403 77.4867 92.3203 79.9647 94.6803 81.774C97.0403 83.5047 100.305 84.37 104.474 84.37Z" fill="#1E293B"/>
<path d="M151.687 123.9V111.038H168.089L174.579 95.462L143.427 24.78H160.183L182.485 76.7H183.075L204.551 24.78H220.599L205.495 60.18L190.391 95.58L183.901 110.92C182.171 115.011 180.283 118.197 178.237 120.478C176.271 122.759 173.006 123.9 168.443 123.9H151.687Z" fill="#1E293B"/>
<path d="M230.599 95.58V0H247.001V95.58H230.599Z" fill="#2563EB"/>
<path d="M255.239 95.58V0H291.111C301.495 0 310.463 1.92733 318.015 5.782C325.567 9.558 331.349 15.0253 335.361 22.184C339.452 29.3427 341.497 37.878 341.497 47.79C341.497 57.6233 339.452 66.1193 335.361 73.278C331.27 80.4367 325.449 85.9433 317.897 89.798C310.345 93.6527 301.416 95.58 291.111 95.58H255.239ZM271.641 81.656H291.111C301.967 81.656 310.306 78.6273 316.127 72.57C322.027 66.5127 324.977 58.2527 324.977 47.79C324.977 37.2487 322.066 28.9887 316.245 23.01C310.424 16.9527 302.046 13.924 291.111 13.924H271.641V81.656Z" fill="#2563EB"/>
</svg>
